<?xml version="1.0" encoding="utf-8" standalone="no"?>
<!DOCTYPE svg PUBLIC "-//W3C//DTD SVG 1.1//EN"
  "http://www.w3.org/Graphics/SVG/1.1/DTD/svg11.dtd">
<svg xmlns:xlink="http://www.w3.org/1999/xlink" width="568.153437pt" height="323.466406pt" viewBox="0 0 568.153437 323.466406" xmlns="http://www.w3.org/2000/svg" version="1.1">
 <metadata>
  <rdf:RDF xmlns:dc="http://purl.org/dc/elements/1.1/" xmlns:cc="http://creativecommons.org/ns#" xmlns:rdf="http://www.w3.org/1999/02/22-rdf-syntax-ns#">
   <cc:Work>
    <dc:type rdf:resource="http://purl.org/dc/dcmitype/StillImage"/>
    <dc:date>2026-09-08T19:39:19.229097</dc:date>
    <dc:format>image/svg+xml</dc:format>
    <dc:creator>
     <cc:Agent>
      <dc:title>Matplotlib v3.6.3, https://matplotlib.org/</dc:title>
     </cc:Agent>
    </dc:creator>
   </cc:Work>
  </rdf:RDF>
 </metadata>
 <defs>
  <style type="text/css">*{stroke-linejoin: round; stroke-linecap: butt}</style>
 </defs>
 <g id="figure_1">
  <g id="patch_1">
   <path d="M 0 323.466406 
L 568.153437 323.466406 
L 568.153437 0 
L 0 0 
z
" style="fill: #fcfcfb"/>
  </g>
  <g id="axes_1">
   <g id="patch_2">
    <path d="M 38.690938 290.377969 
L 560.953437 290.377969 
L 560.953437 53.077969 
L 38.690938 53.077969 
z
" style="fill: #fcfcfb"/>
   </g>
   <g id="matplotlib.axis_1">
    <g id="xtick_1">
     <g id="line2d_1">
      <path d="M 38.690938 290.377969 
L 38.690938 53.077969 
" clip-path="url(#p1c989e7232)" style="fill: none; stroke: #e1e0d9; stroke-width: 0.8; stroke-linecap: square"/>
     </g>
     <g id="line2d_2"/>
     <g id="text_1">
      <!-- 0.0 -->
      <g style="fill: #898781" transform="translate(31.534531 300.716563) scale(0.09 -0.09)">
       <defs>
        <path id="DejaVuSans-30" d="M 2034 4250 
Q 1547 4250 1301 3770 
Q 1056 3291 1056 2328 
Q 1056 1369 1301 889 
Q 1547 409 2034 409 
Q 2525 409 2770 889 
Q 3016 1369 3016 2328 
Q 3016 3291 2770 3770 
Q 2525 4250 2034 4250 
z
M 2034 4750 
Q 2819 4750 3233 4129 
Q 3647 3509 3647 2328 
Q 3647 1150 3233 529 
Q 2819 -91 2034 -91 
Q 1250 -91 836 529 
Q 422 1150 422 2328 
Q 422 3509 836 4129 
Q 1250 4750 2034 4750 
z
" transform="scale(0.015625)"/>
        <path id="DejaVuSans-2e" d="M 684 794 
L 1344 794 
L 1344 0 
L 684 0 
L 684 794 
z
" transform="scale(0.015625)"/>
       </defs>
       <use xlink:href="#DejaVuSans-30"/>
       <use xlink:href="#DejaVuSans-2e" x="63.623047"/>
       <use xlink:href="#DejaVuSans-30" x="95.410156"/>
      </g>
     </g>
    </g>
    <g id="xtick_2">
     <g id="line2d_3">
      <path d="M 141.095349 290.377969 
L 141.095349 53.077969 
" clip-path="url(#p1c989e7232)" style="fill: none; stroke: #e1e0d9; stroke-width: 0.8; stroke-linecap: square"/>
     </g>
     <g id="line2d_4"/>
     <g id="text_2">
      <!-- 0.2 -->
      <g style="fill: #898781" transform="translate(133.938943 300.716563) scale(0.09 -0.09)">
       <defs>
        <path id="DejaVuSans-32" d="M 1228 531 
L 3431 531 
L 3431 0 
L 469 0 
L 469 531 
Q 828 903 1448 1529 
Q 2069 2156 2228 2338 
Q 2531 2678 2651 2914 
Q 2772 3150 2772 3378 
Q 2772 3750 2511 3984 
Q 2250 4219 1831 4219 
Q 1534 4219 1204 4116 
Q 875 4013 500 3803 
L 500 4441 
Q 881 4594 1212 4672 
Q 1544 4750 1819 4750 
Q 2544 4750 2975 4387 
Q 3406 4025 3406 3419 
Q 3406 3131 3298 2873 
Q 3191 2616 2906 2266 
Q 2828 2175 2409 1742 
Q 1991 1309 1228 531 
z
" transform="scale(0.015625)"/>
       </defs>
       <use xlink:href="#DejaVuSans-30"/>
       <use xlink:href="#DejaVuSans-2e" x="63.623047"/>
       <use xlink:href="#DejaVuSans-32" x="95.410156"/>
      </g>
     </g>
    </g>
    <g id="xtick_3">
     <g id="line2d_5">
      <path d="M 243.499761 290.377969 
L 243.499761 53.077969 
" clip-path="url(#p1c989e7232)" style="fill: none; stroke: #e1e0d9; stroke-width: 0.8; stroke-linecap: square"/>
     </g>
     <g id="line2d_6"/>
     <g id="text_3">
      <!-- 0.4 -->
      <g style="fill: #898781" transform="translate(236.343355 300.716563) scale(0.09 -0.09)">
       <defs>
        <path id="DejaVuSans-34" d="M 2419 4116 
L 825 1625 
L 2419 1625 
L 2419 4116 
z
M 2253 4666 
L 3047 4666 
L 3047 1625 
L 3713 1625 
L 3713 1100 
L 3047 1100 
L 3047 0 
L 2419 0 
L 2419 1100 
L 313 1100 
L 313 1709 
L 2253 4666 
z
" transform="scale(0.015625)"/>
       </defs>
       <use xlink:href="#DejaVuSans-30"/>
       <use xlink:href="#DejaVuSans-2e" x="63.623047"/>
       <use xlink:href="#DejaVuSans-34" x="95.410156"/>
      </g>
     </g>
    </g>
    <g id="xtick_4">
     <g id="line2d_7">
      <path d="M 345.904173 290.377969 
L 345.904173 53.077969 
" clip-path="url(#p1c989e7232)" style="fill: none; stroke: #e1e0d9; stroke-width: 0.8; stroke-linecap: square"/>
     </g>
     <g id="line2d_8"/>
     <g id="text_4">
      <!-- 0.6 -->
      <g style="fill: #898781" transform="translate(338.747767 300.716563) scale(0.09 -0.09)">
       <defs>
        <path id="DejaVuSans-36" d="M 2113 2584 
Q 1688 2584 1439 2293 
Q 1191 2003 1191 1497 
Q 1191 994 1439 701 
Q 1688 409 2113 409 
Q 2538 409 2786 701 
Q 3034 994 3034 1497 
Q 3034 2003 2786 2293 
Q 2538 2584 2113 2584 
z
M 3366 4563 
L 3366 3988 
Q 3128 4100 2886 4159 
Q 2644 4219 2406 4219 
Q 1781 4219 1451 3797 
Q 1122 3375 1075 2522 
Q 1259 2794 1537 2939 
Q 1816 3084 2150 3084 
Q 2853 3084 3261 2657 
Q 3669 2231 3669 1497 
Q 3669 778 3244 343 
Q 2819 -91 2113 -91 
Q 1303 -91 875 529 
Q 447 1150 447 2328 
Q 447 3434 972 4092 
Q 1497 4750 2381 4750 
Q 2619 4750 2861 4703 
Q 3103 4656 3366 4563 
z
" transform="scale(0.015625)"/>
       </defs>
       <use xlink:href="#DejaVuSans-30"/>
       <use xlink:href="#DejaVuSans-2e" x="63.623047"/>
       <use xlink:href="#DejaVuSans-36" x="95.410156"/>
      </g>
     </g>
    </g>
    <g id="xtick_5">
     <g id="line2d_9">
      <path d="M 448.308585 290.377969 
L 448.308585 53.077969 
" clip-path="url(#p1c989e7232)" style="fill: none; stroke: #e1e0d9; stroke-width: 0.8; stroke-linecap: square"/>
     </g>
     <g id="line2d_10"/>
     <g id="text_5">
      <!-- 0.8 -->
      <g style="fill: #898781" transform="translate(441.152178 300.716563) scale(0.09 -0.09)">
       <defs>
        <path id="DejaVuSans-38" d="M 2034 2216 
Q 1584 2216 1326 1975 
Q 1069 1734 1069 1313 
Q 1069 891 1326 650 
Q 1584 409 2034 409 
Q 2484 409 2743 651 
Q 3003 894 3003 1313 
Q 3003 1734 2745 1975 
Q 2488 2216 2034 2216 
z
M 1403 2484 
Q 997 2584 770 2862 
Q 544 3141 544 3541 
Q 544 4100 942 4425 
Q 1341 4750 2034 4750 
Q 2731 4750 3128 4425 
Q 3525 4100 3525 3541 
Q 3525 3141 3298 2862 
Q 3072 2584 2669 2484 
Q 3125 2378 3379 2068 
Q 3634 1759 3634 1313 
Q 3634 634 3220 271 
Q 2806 -91 2034 -91 
Q 1263 -91 848 271 
Q 434 634 434 1313 
Q 434 1759 690 2068 
Q 947 2378 1403 2484 
z
M 1172 3481 
Q 1172 3119 1398 2916 
Q 1625 2713 2034 2713 
Q 2441 2713 2670 2916 
Q 2900 3119 2900 3481 
Q 2900 3844 2670 4047 
Q 2441 4250 2034 4250 
Q 1625 4250 1398 4047 
Q 1172 3844 1172 3481 
z
" transform="scale(0.015625)"/>
       </defs>
       <use xlink:href="#DejaVuSans-30"/>
       <use xlink:href="#DejaVuSans-2e" x="63.623047"/>
       <use xlink:href="#DejaVuSans-38" x="95.410156"/>
      </g>
     </g>
    </g>
    <g id="xtick_6">
     <g id="line2d_11">
      <path d="M 550.712996 290.377969 
L 550.712996 53.077969 
" clip-path="url(#p1c989e7232)" style="fill: none; stroke: #e1e0d9; stroke-width: 0.8; stroke-linecap: square"/>
     </g>
     <g id="line2d_12"/>
     <g id="text_6">
      <!-- 1.0 -->
      <g style="fill: #898781" transform="translate(543.55659 300.716563) scale(0.09 -0.09)">
       <defs>
        <path id="DejaVuSans-31" d="M 794 531 
L 1825 531 
L 1825 4091 
L 703 3866 
L 703 4441 
L 1819 4666 
L 2450 4666 
L 2450 531 
L 3481 531 
L 3481 0 
L 794 0 
L 794 531 
z
" transform="scale(0.015625)"/>
       </defs>
       <use xlink:href="#DejaVuSans-31"/>
       <use xlink:href="#DejaVuSans-2e" x="63.623047"/>
       <use xlink:href="#DejaVuSans-30" x="95.410156"/>
      </g>
     </g>
    </g>
    <g id="text_7">
     <!-- dominant-server share -->
     <g style="fill: #52514e" transform="translate(242.889375 314.186719) scale(0.1 -0.1)">
      <defs>
       <path id="DejaVuSans-64" d="M 2906 2969 
L 2906 4863 
L 3481 4863 
L 3481 0 
L 2906 0 
L 2906 525 
Q 2725 213 2448 61 
Q 2172 -91 1784 -91 
Q 1150 -91 751 415 
Q 353 922 353 1747 
Q 353 2572 751 3078 
Q 1150 3584 1784 3584 
Q 2172 3584 2448 3432 
Q 2725 3281 2906 2969 
z
M 947 1747 
Q 947 1113 1208 752 
Q 1469 391 1925 391 
Q 2381 391 2643 752 
Q 2906 1113 2906 1747 
Q 2906 2381 2643 2742 
Q 2381 3103 1925 3103 
Q 1469 3103 1208 2742 
Q 947 2381 947 1747 
z
" transform="scale(0.015625)"/>
       <path id="DejaVuSans-6f" d="M 1959 3097 
Q 1497 3097 1228 2736 
Q 959 2375 959 1747 
Q 959 1119 1226 758 
Q 1494 397 1959 397 
Q 2419 397 2687 759 
Q 2956 1122 2956 1747 
Q 2956 2369 2687 2733 
Q 2419 3097 1959 3097 
z
M 1959 3584 
Q 2709 3584 3137 3096 
Q 3566 2609 3566 1747 
Q 3566 888 3137 398 
Q 2709 -91 1959 -91 
Q 1206 -91 779 398 
Q 353 888 353 1747 
Q 353 2609 779 3096 
Q 1206 3584 1959 3584 
z
" transform="scale(0.015625)"/>
       <path id="DejaVuSans-6d" d="M 3328 2828 
Q 3544 3216 3844 3400 
Q 4144 3584 4550 3584 
Q 5097 3584 5394 3201 
Q 5691 2819 5691 2113 
L 5691 0 
L 5113 0 
L 5113 2094 
Q 5113 2597 4934 2840 
Q 4756 3084 4391 3084 
Q 3944 3084 3684 2787 
Q 3425 2491 3425 1978 
L 3425 0 
L 2847 0 
L 2847 2094 
Q 2847 2600 2669 2842 
Q 2491 3084 2119 3084 
Q 1678 3084 1418 2786 
Q 1159 2488 1159 1978 
L 1159 0 
L 581 0 
L 581 3500 
L 1159 3500 
L 1159 2956 
Q 1356 3278 1631 3431 
Q 1906 3584 2284 3584 
Q 2666 3584 2933 3390 
Q 3200 3197 3328 2828 
z
" transform="scale(0.015625)"/>
       <path id="DejaVuSans-69" d="M 603 3500 
L 1178 3500 
L 1178 0 
L 603 0 
L 603 3500 
z
M 603 4863 
L 1178 4863 
L 1178 4134 
L 603 4134 
L 603 4863 
z
" transform="scale(0.015625)"/>
       <path id="DejaVuSans-6e" d="M 3513 2113 
L 3513 0 
L 2938 0 
L 2938 2094 
Q 2938 2591 2744 2837 
Q 2550 3084 2163 3084 
Q 1697 3084 1428 2787 
Q 1159 2491 1159 1978 
L 1159 0 
L 581 0 
L 581 3500 
L 1159 3500 
L 1159 2956 
Q 1366 3272 1645 3428 
Q 1925 3584 2291 3584 
Q 2894 3584 3203 3211 
Q 3513 2838 3513 2113 
z
" transform="scale(0.015625)"/>
       <path id="DejaVuSans-61" d="M 2194 1759 
Q 1497 1759 1228 1600 
Q 959 1441 959 1056 
Q 959 750 1161 570 
Q 1363 391 1709 391 
Q 2188 391 2477 730 
Q 2766 1069 2766 1631 
L 2766 1759 
L 2194 1759 
z
M 3341 1997 
L 3341 0 
L 2766 0 
L 2766 531 
Q 2569 213 2275 61 
Q 1981 -91 1556 -91 
Q 1019 -91 701 211 
Q 384 513 384 1019 
Q 384 1609 779 1909 
Q 1175 2209 1959 2209 
L 2766 2209 
L 2766 2266 
Q 2766 2663 2505 2880 
Q 2244 3097 1772 3097 
Q 1472 3097 1187 3025 
Q 903 2953 641 2809 
L 641 3341 
Q 956 3463 1253 3523 
Q 1550 3584 1831 3584 
Q 2591 3584 2966 3190 
Q 3341 2797 3341 1997 
z
" transform="scale(0.015625)"/>
       <path id="DejaVuSans-74" d="M 1172 4494 
L 1172 3500 
L 2356 3500 
L 2356 3053 
L 1172 3053 
L 1172 1153 
Q 1172 725 1289 603 
Q 1406 481 1766 481 
L 2356 481 
L 2356 0 
L 1766 0 
Q 1100 0 847 248 
Q 594 497 594 1153 
L 594 3053 
L 172 3053 
L 172 3500 
L 594 3500 
L 594 4494 
L 1172 4494 
z
" transform="scale(0.015625)"/>
       <path id="DejaVuSans-2d" d="M 313 2009 
L 1997 2009 
L 1997 1497 
L 313 1497 
L 313 2009 
z
" transform="scale(0.015625)"/>
       <path id="DejaVuSans-73" d="M 2834 3397 
L 2834 2853 
Q 2591 2978 2328 3040 
Q 2066 3103 1784 3103 
Q 1356 3103 1142 2972 
Q 928 2841 928 2578 
Q 928 2378 1081 2264 
Q 1234 2150 1697 2047 
L 1894 2003 
Q 2506 1872 2764 1633 
Q 3022 1394 3022 966 
Q 3022 478 2636 193 
Q 2250 -91 1575 -91 
Q 1294 -91 989 -36 
Q 684 19 347 128 
L 347 722 
Q 666 556 975 473 
Q 1284 391 1588 391 
Q 1994 391 2212 530 
Q 2431 669 2431 922 
Q 2431 1156 2273 1281 
Q 2116 1406 1581 1522 
L 1381 1569 
Q 847 1681 609 1914 
Q 372 2147 372 2553 
Q 372 3047 722 3315 
Q 1072 3584 1716 3584 
Q 2034 3584 2315 3537 
Q 2597 3491 2834 3397 
z
" transform="scale(0.015625)"/>
       <path id="DejaVuSans-65" d="M 3597 1894 
L 3597 1613 
L 953 1613 
Q 991 1019 1311 708 
Q 1631 397 2203 397 
Q 2534 397 2845 478 
Q 3156 559 3463 722 
L 3463 178 
Q 3153 47 2828 -22 
Q 2503 -91 2169 -91 
Q 1331 -91 842 396 
Q 353 884 353 1716 
Q 353 2575 817 3079 
Q 1281 3584 2069 3584 
Q 2775 3584 3186 3129 
Q 3597 2675 3597 1894 
z
M 3022 2063 
Q 3016 2534 2758 2815 
Q 2500 3097 2075 3097 
Q 1594 3097 1305 2825 
Q 1016 2553 972 2059 
L 3022 2063 
z
" transform="scale(0.015625)"/>
       <path id="DejaVuSans-72" d="M 2631 2963 
Q 2534 3019 2420 3045 
Q 2306 3072 2169 3072 
Q 1681 3072 1420 2755 
Q 1159 2438 1159 1844 
L 1159 0 
L 581 0 
L 581 3500 
L 1159 3500 
L 1159 2956 
Q 1341 3275 1631 3429 
Q 1922 3584 2338 3584 
Q 2397 3584 2469 3576 
Q 2541 3569 2628 3553 
L 2631 2963 
z
" transform="scale(0.015625)"/>
       <path id="DejaVuSans-76" d="M 191 3500 
L 800 3500 
L 1894 563 
L 2988 3500 
L 3597 3500 
L 2284 0 
L 1503 0 
L 191 3500 
z
" transform="scale(0.015625)"/>
       <path id="DejaVuSans-20" transform="scale(0.015625)"/>
       <path id="DejaVuSans-68" d="M 3513 2113 
L 3513 0 
L 2938 0 
L 2938 2094 
Q 2938 2591 2744 2837 
Q 2550 3084 2163 3084 
Q 1697 3084 1428 2787 
Q 1159 2491 1159 1978 
L 1159 0 
L 581 0 
L 581 4863 
L 1159 4863 
L 1159 2956 
Q 1366 3272 1645 3428 
Q 1925 3584 2291 3584 
Q 2894 3584 3203 3211 
Q 3513 2838 3513 2113 
z
" transform="scale(0.015625)"/>
      </defs>
      <use xlink:href="#DejaVuSans-64"/>
      <use xlink:href="#DejaVuSans-6f" x="63.476562"/>
      <use xlink:href="#DejaVuSans-6d" x="124.658203"/>
      <use xlink:href="#DejaVuSans-69" x="222.070312"/>
      <use xlink:href="#DejaVuSans-6e" x="249.853516"/>
      <use xlink:href="#DejaVuSans-61" x="313.232422"/>
      <use xlink:href="#DejaVuSans-6e" x="374.511719"/>
      <use xlink:href="#DejaVuSans-74" x="437.890625"/>
      <use xlink:href="#DejaVuSans-2d" x="477.099609"/>
      <use xlink:href="#DejaVuSans-73" x="513.183594"/>
      <use xlink:href="#DejaVuSans-65" x="565.283203"/>
      <use xlink:href="#DejaVuSans-72" x="626.806641"/>
      <use xlink:href="#DejaVuSans-76" x="667.919922"/>
      <use xlink:href="#DejaVuSans-65" x="727.099609"/>
      <use xlink:href="#DejaVuSans-72" x="788.623047"/>
      <use xlink:href="#DejaVuSans-20" x="829.736328"/>
      <use xlink:href="#DejaVuSans-73" x="861.523438"/>
      <use xlink:href="#DejaVuSans-68" x="913.623047"/>
      <use xlink:href="#DejaVuSans-61" x="977.001953"/>
      <use xlink:href="#DejaVuSans-72" x="1038.28125"/>
      <use xlink:href="#DejaVuSans-65" x="1077.144531"/>
     </g>
    </g>
   </g>
   <g id="matplotlib.axis_2">
    <g id="ytick_1">
     <g id="line2d_13">
      <path d="M 38.690938 290.377969 
L 560.953437 290.377969 
" clip-path="url(#p1c989e7232)" style="fill: none; stroke: #e1e0d9; stroke-width: 0.8; stroke-linecap: square"/>
     </g>
     <g id="line2d_14"/>
     <g id="text_8">
      <!-- 0.0 -->
      <g style="fill: #898781" transform="translate(20.878125 293.797266) scale(0.09 -0.09)">
       <use xlink:href="#DejaVuSans-30"/>
       <use xlink:href="#DejaVuSans-2e" x="63.623047"/>
       <use xlink:href="#DejaVuSans-30" x="95.410156"/>
      </g>
     </g>
    </g>
    <g id="ytick_2">
     <g id="line2d_15">
      <path d="M 38.690938 243.848557 
L 560.953437 243.848557 
" clip-path="url(#p1c989e7232)" style="fill: none; stroke: #e1e0d9; stroke-width: 0.8; stroke-linecap: square"/>
     </g>
     <g id="line2d_16"/>
     <g id="text_9">
      <!-- 0.2 -->
      <g style="fill: #898781" transform="translate(20.878125 247.267854) scale(0.09 -0.09)">
       <use xlink:href="#DejaVuSans-30"/>
       <use xlink:href="#DejaVuSans-2e" x="63.623047"/>
       <use xlink:href="#DejaVuSans-32" x="95.410156"/>
      </g>
     </g>
    </g>
    <g id="ytick_3">
     <g id="line2d_17">
      <path d="M 38.690938 197.319145 
L 560.953437 197.319145 
" clip-path="url(#p1c989e7232)" style="fill: none; stroke: #e1e0d9; stroke-width: 0.8; stroke-linecap: square"/>
     </g>
     <g id="line2d_18"/>
     <g id="text_10">
      <!-- 0.4 -->
      <g style="fill: #898781" transform="translate(20.878125 200.738442) scale(0.09 -0.09)">
       <use xlink:href="#DejaVuSans-30"/>
       <use xlink:href="#DejaVuSans-2e" x="63.623047"/>
       <use xlink:href="#DejaVuSans-34" x="95.410156"/>
      </g>
     </g>
    </g>
    <g id="ytick_4">
     <g id="line2d_19">
      <path d="M 38.690938 150.789733 
L 560.953437 150.789733 
" clip-path="url(#p1c989e7232)" style="fill: none; stroke: #e1e0d9; stroke-width: 0.8; stroke-linecap: square"/>
     </g>
     <g id="line2d_20"/>
     <g id="text_11">
      <!-- 0.6 -->
      <g style="fill: #898781" transform="translate(20.878125 154.20903) scale(0.09 -0.09)">
       <use xlink:href="#DejaVuSans-30"/>
       <use xlink:href="#DejaVuSans-2e" x="63.623047"/>
       <use xlink:href="#DejaVuSans-36" x="95.410156"/>
      </g>
     </g>
    </g>
    <g id="ytick_5">
     <g id="line2d_21">
      <path d="M 38.690938 104.260322 
L 560.953437 104.260322 
" clip-path="url(#p1c989e7232)" style="fill: none; stroke: #e1e0d9; stroke-width: 0.8; stroke-linecap: square"/>
     </g>
     <g id="line2d_22"/>
     <g id="text_12">
      <!-- 0.8 -->
      <g style="fill: #898781" transform="translate(20.878125 107.679619) scale(0.09 -0.09)">
       <use xlink:href="#DejaVuSans-30"/>
       <use xlink:href="#DejaVuSans-2e" x="63.623047"/>
       <use xlink:href="#DejaVuSans-38" x="95.410156"/>
      </g>
     </g>
    </g>
    <g id="ytick_6">
     <g id="line2d_23">
      <path d="M 38.690938 57.73091 
L 560.953437 57.73091 
" clip-path="url(#p1c989e7232)" style="fill: none; stroke: #e1e0d9; stroke-width: 0.8; stroke-linecap: square"/>
     </g>
     <g id="line2d_24"/>
     <g id="text_13">
      <!-- 1.0 -->
      <g style="fill: #898781" transform="translate(20.878125 61.150207) scale(0.09 -0.09)">
       <use xlink:href="#DejaVuSans-31"/>
       <use xlink:href="#DejaVuSans-2e" x="63.623047"/>
       <use xlink:href="#DejaVuSans-30" x="95.410156"/>
      </g>
     </g>
    </g>
    <g id="text_14">
     <!-- cumulative share of clients -->
     <g style="fill: #52514e" transform="translate(14.798438 239.304531) rotate(-90) scale(0.1 -0.1)">
      <defs>
       <path id="DejaVuSans-63" d="M 3122 3366 
L 3122 2828 
Q 2878 2963 2633 3030 
Q 2388 3097 2138 3097 
Q 1578 3097 1268 2742 
Q 959 2388 959 1747 
Q 959 1106 1268 751 
Q 1578 397 2138 397 
Q 2388 397 2633 464 
Q 2878 531 3122 666 
L 3122 134 
Q 2881 22 2623 -34 
Q 2366 -91 2075 -91 
Q 1284 -91 818 406 
Q 353 903 353 1747 
Q 353 2603 823 3093 
Q 1294 3584 2113 3584 
Q 2378 3584 2631 3529 
Q 2884 3475 3122 3366 
z
" transform="scale(0.015625)"/>
       <path id="DejaVuSans-75" d="M 544 1381 
L 544 3500 
L 1119 3500 
L 1119 1403 
Q 1119 906 1312 657 
Q 1506 409 1894 409 
Q 2359 409 2629 706 
Q 2900 1003 2900 1516 
L 2900 3500 
L 3475 3500 
L 3475 0 
L 2900 0 
L 2900 538 
Q 2691 219 2414 64 
Q 2138 -91 1772 -91 
Q 1169 -91 856 284 
Q 544 659 544 1381 
z
M 1991 3584 
L 1991 3584 
z
" transform="scale(0.015625)"/>
       <path id="DejaVuSans-6c" d="M 603 4863 
L 1178 4863 
L 1178 0 
L 603 0 
L 603 4863 
z
" transform="scale(0.015625)"/>
       <path id="DejaVuSans-66" d="M 2375 4863 
L 2375 4384 
L 1825 4384 
Q 1516 4384 1395 4259 
Q 1275 4134 1275 3809 
L 1275 3500 
L 2222 3500 
L 2222 3053 
L 1275 3053 
L 1275 0 
L 697 0 
L 697 3053 
L 147 3053 
L 147 3500 
L 697 3500 
L 697 3744 
Q 697 4328 969 4595 
Q 1241 4863 1831 4863 
L 2375 4863 
z
" transform="scale(0.015625)"/>
      </defs>
      <use xlink:href="#DejaVuSans-63"/>
      <use xlink:href="#DejaVuSans-75" x="54.980469"/>
      <use xlink:href="#DejaVuSans-6d" x="118.359375"/>
      <use xlink:href="#DejaVuSans-75" x="215.771484"/>
      <use xlink:href="#DejaVuSans-6c" x="279.150391"/>
      <use xlink:href="#DejaVuSans-61" x="306.933594"/>
      <use xlink:href="#DejaVuSans-74" x="368.212891"/>
      <use xlink:href="#DejaVuSans-69" x="407.421875"/>
      <use xlink:href="#DejaVuSans-76" x="435.205078"/>
      <use xlink:href="#DejaVuSans-65" x="494.384766"/>
      <use xlink:href="#DejaVuSans-20" x="555.908203"/>
      <use xlink:href="#DejaVuSans-73" x="587.695312"/>
      <use xlink:href="#DejaVuSans-68" x="639.794922"/>
      <use xlink:href="#DejaVuSans-61" x="703.173828"/>
      <use xlink:href="#DejaVuSans-72" x="764.453125"/>
      <use xlink:href="#DejaVuSans-65" x="803.316406"/>
      <use xlink:href="#DejaVuSans-20" x="864.839844"/>
      <use xlink:href="#DejaVuSans-6f" x="896.626953"/>
      <use xlink:href="#DejaVuSans-66" x="957.808594"/>
      <use xlink:href="#DejaVuSans-20" x="993.013672"/>
      <use xlink:href="#DejaVuSans-63" x="1024.800781"/>
      <use xlink:href="#DejaVuSans-6c" x="1079.78125"/>
      <use xlink:href="#DejaVuSans-69" x="1107.564453"/>
      <use xlink:href="#DejaVuSans-65" x="1135.347656"/>
      <use xlink:href="#DejaVuSans-6e" x="1196.871094"/>
      <use xlink:href="#DejaVuSans-74" x="1260.25"/>
      <use xlink:href="#DejaVuSans-73" x="1299.458984"/>
     </g>
    </g>
   </g>
   <g id="patch_3">
    <path d="M 38.690938 290.377969 
L 38.690938 53.077969 
" style="fill: none; stroke: #c3c2b7; stroke-linejoin: miter; stroke-linecap: square"/>
   </g>
   <g id="patch_4">
    <path d="M 38.690938 290.377969 
L 560.953437 290.377969 
" style="fill: none; stroke: #c3c2b7; stroke-linejoin: miter; stroke-linecap: square"/>
   </g>
   <g id="text_15">
    <!-- x = share of that client's requests taken by one server.  1.0 is a static pin. -->
    <g style="fill: #52514e" transform="translate(38.690938 34.274641) scale(0.095 -0.095)">
     <defs>
      <path id="DejaVuSans-78" d="M 3513 3500 
L 2247 1797 
L 3578 0 
L 2900 0 
L 1881 1375 
L 863 0 
L 184 0 
L 1544 1831 
L 300 3500 
L 978 3500 
L 1906 2253 
L 2834 3500 
L 3513 3500 
z
" transform="scale(0.015625)"/>
      <path id="DejaVuSans-3d" d="M 678 2906 
L 4684 2906 
L 4684 2381 
L 678 2381 
L 678 2906 
z
M 678 1631 
L 4684 1631 
L 4684 1100 
L 678 1100 
L 678 1631 
z
" transform="scale(0.015625)"/>
      <path id="DejaVuSans-27" d="M 1147 4666 
L 1147 2931 
L 616 2931 
L 616 4666 
L 1147 4666 
z
" transform="scale(0.015625)"/>
      <path id="DejaVuSans-71" d="M 947 1747 
Q 947 1113 1208 752 
Q 1469 391 1925 391 
Q 2381 391 2643 752 
Q 2906 1113 2906 1747 
Q 2906 2381 2643 2742 
Q 2381 3103 1925 3103 
Q 1469 3103 1208 2742 
Q 947 2381 947 1747 
z
M 2906 525 
Q 2725 213 2448 61 
Q 2172 -91 1784 -91 
Q 1150 -91 751 415 
Q 353 922 353 1747 
Q 353 2572 751 3078 
Q 1150 3584 1784 3584 
Q 2172 3584 2448 3432 
Q 2725 3281 2906 2969 
L 2906 3500 
L 3481 3500 
L 3481 -1331 
L 2906 -1331 
L 2906 525 
z
" transform="scale(0.015625)"/>
      <path id="DejaVuSans-6b" d="M 581 4863 
L 1159 4863 
L 1159 1991 
L 2875 3500 
L 3609 3500 
L 1753 1863 
L 3688 0 
L 2938 0 
L 1159 1709 
L 1159 0 
L 581 0 
L 581 4863 
z
" transform="scale(0.015625)"/>
      <path id="DejaVuSans-62" d="M 3116 1747 
Q 3116 2381 2855 2742 
Q 2594 3103 2138 3103 
Q 1681 3103 1420 2742 
Q 1159 2381 1159 1747 
Q 1159 1113 1420 752 
Q 1681 391 2138 391 
Q 2594 391 2855 752 
Q 3116 1113 3116 1747 
z
M 1159 2969 
Q 1341 3281 1617 3432 
Q 1894 3584 2278 3584 
Q 2916 3584 3314 3078 
Q 3713 2572 3713 1747 
Q 3713 922 3314 415 
Q 2916 -91 2278 -91 
Q 1894 -91 1617 61 
Q 1341 213 1159 525 
L 1159 0 
L 581 0 
L 581 4863 
L 1159 4863 
L 1159 2969 
z
" transform="scale(0.015625)"/>
      <path id="DejaVuSans-79" d="M 2059 -325 
Q 1816 -950 1584 -1140 
Q 1353 -1331 966 -1331 
L 506 -1331 
L 506 -850 
L 844 -850 
Q 1081 -850 1212 -737 
Q 1344 -625 1503 -206 
L 1606 56 
L 191 3500 
L 800 3500 
L 1894 763 
L 2988 3500 
L 3597 3500 
L 2059 -325 
z
" transform="scale(0.015625)"/>
      <path id="DejaVuSans-70" d="M 1159 525 
L 1159 -1331 
L 581 -1331 
L 581 3500 
L 1159 3500 
L 1159 2969 
Q 1341 3281 1617 3432 
Q 1894 3584 2278 3584 
Q 2916 3584 3314 3078 
Q 3713 2572 3713 1747 
Q 3713 922 3314 415 
Q 2916 -91 2278 -91 
Q 1894 -91 1617 61 
Q 1341 213 1159 525 
z
M 3116 1747 
Q 3116 2381 2855 2742 
Q 2594 3103 2138 3103 
Q 1681 3103 1420 2742 
Q 1159 2381 1159 1747 
Q 1159 1113 1420 752 
Q 1681 391 2138 391 
Q 2594 391 2855 752 
Q 3116 1113 3116 1747 
z
" transform="scale(0.015625)"/>
     </defs>
     <use xlink:href="#DejaVuSans-78"/>
     <use xlink:href="#DejaVuSans-20" x="59.179688"/>
     <use xlink:href="#DejaVuSans-3d" x="90.966797"/>
     <use xlink:href="#DejaVuSans-20" x="174.755859"/>
     <use xlink:href="#DejaVuSans-73" x="206.542969"/>
     <use xlink:href="#DejaVuSans-68" x="258.642578"/>
     <use xlink:href="#DejaVuSans-61" x="322.021484"/>
     <use xlink:href="#DejaVuSans-72" x="383.300781"/>
     <use xlink:href="#DejaVuSans-65" x="422.164062"/>
     <use xlink:href="#DejaVuSans-20" x="483.6875"/>
     <use xlink:href="#DejaVuSans-6f" x="515.474609"/>
     <use xlink:href="#DejaVuSans-66" x="576.65625"/>
     <use xlink:href="#DejaVuSans-20" x="611.861328"/>
     <use xlink:href="#DejaVuSans-74" x="643.648438"/>
     <use xlink:href="#DejaVuSans-68" x="682.857422"/>
     <use xlink:href="#DejaVuSans-61" x="746.236328"/>
     <use xlink:href="#DejaVuSans-74" x="807.515625"/>
     <use xlink:href="#DejaVuSans-20" x="846.724609"/>
     <use xlink:href="#DejaVuSans-63" x="878.511719"/>
     <use xlink:href="#DejaVuSans-6c" x="933.492188"/>
     <use xlink:href="#DejaVuSans-69" x="961.275391"/>
     <use xlink:href="#DejaVuSans-65" x="989.058594"/>
     <use xlink:href="#DejaVuSans-6e" x="1050.582031"/>
     <use xlink:href="#DejaVuSans-74" x="1113.960938"/>
     <use xlink:href="#DejaVuSans-27" x="1153.169922"/>
     <use xlink:href="#DejaVuSans-73" x="1180.660156"/>
     <use xlink:href="#DejaVuSans-20" x="1232.759766"/>
     <use xlink:href="#DejaVuSans-72" x="1264.546875"/>
     <use xlink:href="#DejaVuSans-65" x="1303.410156"/>
     <use xlink:href="#DejaVuSans-71" x="1364.933594"/>
     <use xlink:href="#DejaVuSans-75" x="1428.410156"/>
     <use xlink:href="#DejaVuSans-65" x="1491.789062"/>
     <use xlink:href="#DejaVuSans-73" x="1553.3125"/>
     <use xlink:href="#DejaVuSans-74" x="1605.412109"/>
     <use xlink:href="#DejaVuSans-73" x="1644.621094"/>
     <use xlink:href="#DejaVuSans-20" x="1696.720703"/>
     <use xlink:href="#DejaVuSans-74" x="1728.507812"/>
     <use xlink:href="#DejaVuSans-61" x="1767.716797"/>
     <use xlink:href="#DejaVuSans-6b" x="1828.996094"/>
     <use xlink:href="#DejaVuSans-65" x="1883.28125"/>
     <use xlink:href="#DejaVuSans-6e" x="1944.804688"/>
     <use xlink:href="#DejaVuSans-20" x="2008.183594"/>
     <use xlink:href="#DejaVuSans-62" x="2039.970703"/>
     <use xlink:href="#DejaVuSans-79" x="2103.447266"/>
     <use xlink:href="#DejaVuSans-20" x="2162.626953"/>
     <use xlink:href="#DejaVuSans-6f" x="2194.414062"/>
     <use xlink:href="#DejaVuSans-6e" x="2255.595703"/>
     <use xlink:href="#DejaVuSans-65" x="2318.974609"/>
     <use xlink:href="#DejaVuSans-20" x="2380.498047"/>
     <use xlink:href="#DejaVuSans-73" x="2412.285156"/>
     <use xlink:href="#DejaVuSans-65" x="2464.384766"/>
     <use xlink:href="#DejaVuSans-72" x="2525.908203"/>
     <use xlink:href="#DejaVuSans-76" x="2567.021484"/>
     <use xlink:href="#DejaVuSans-65" x="2626.201172"/>
     <use xlink:href="#DejaVuSans-72" x="2687.724609"/>
     <use xlink:href="#DejaVuSans-2e" x="2719.712891"/>
     <use xlink:href="#DejaVuSans-20" x="2751.5"/>
     <use xlink:href="#DejaVuSans-20" x="2783.287109"/>
     <use xlink:href="#DejaVuSans-31" x="2815.074219"/>
     <use xlink:href="#DejaVuSans-2e" x="2878.697266"/>
     <use xlink:href="#DejaVuSans-30" x="2910.484375"/>
     <use xlink:href="#DejaVuSans-20" x="2974.107422"/>
     <use xlink:href="#DejaVuSans-69" x="3005.894531"/>
     <use xlink:href="#DejaVuSans-73" x="3033.677734"/>
     <use xlink:href="#DejaVuSans-20" x="3085.777344"/>
     <use xlink:href="#DejaVuSans-61" x="3117.564453"/>
     <use xlink:href="#DejaVuSans-20" x="3178.84375"/>
     <use xlink:href="#DejaVuSans-73" x="3210.630859"/>
     <use xlink:href="#DejaVuSans-74" x="3262.730469"/>
     <use xlink:href="#DejaVuSans-61" x="3301.939453"/>
     <use xlink:href="#DejaVuSans-74" x="3363.21875"/>
     <use xlink:href="#DejaVuSans-69" x="3402.427734"/>
     <use xlink:href="#DejaVuSans-63" x="3430.210938"/>
     <use xlink:href="#DejaVuSans-20" x="3485.191406"/>
     <use xlink:href="#DejaVuSans-70" x="3516.978516"/>
     <use xlink:href="#DejaVuSans-69" x="3580.455078"/>
     <use xlink:href="#DejaVuSans-6e" x="3608.238281"/>
     <use xlink:href="#DejaVuSans-2e" x="3671.617188"/>
    </g>
    <!-- A step at 1.0 means every client was pinned. -->
    <g style="fill: #52514e" transform="translate(38.690938 46.356266) scale(0.095 -0.095)">
     <defs>
      <path id="DejaVuSans-41" d="M 2188 4044 
L 1331 1722 
L 3047 1722 
L 2188 4044 
z
M 1831 4666 
L 2547 4666 
L 4325 0 
L 3669 0 
L 3244 1197 
L 1141 1197 
L 716 0 
L 50 0 
L 1831 4666 
z
" transform="scale(0.015625)"/>
      <path id="DejaVuSans-77" d="M 269 3500 
L 844 3500 
L 1563 769 
L 2278 3500 
L 2956 3500 
L 3675 769 
L 4391 3500 
L 4966 3500 
L 4050 0 
L 3372 0 
L 2619 2869 
L 1863 0 
L 1184 0 
L 269 3500 
z
" transform="scale(0.015625)"/>
     </defs>
     <use xlink:href="#DejaVuSans-41"/>
     <use xlink:href="#DejaVuSans-20" x="68.408203"/>
     <use xlink:href="#DejaVuSans-73" x="100.195312"/>
     <use xlink:href="#DejaVuSans-74" x="152.294922"/>
     <use xlink:href="#DejaVuSans-65" x="191.503906"/>
     <use xlink:href="#DejaVuSans-70" x="253.027344"/>
     <use xlink:href="#DejaVuSans-20" x="316.503906"/>
     <use xlink:href="#DejaVuSans-61" x="348.291016"/>
     <use xlink:href="#DejaVuSans-74" x="409.570312"/>
     <use xlink:href="#DejaVuSans-20" x="448.779297"/>
     <use xlink:href="#DejaVuSans-31" x="480.566406"/>
     <use xlink:href="#DejaVuSans-2e" x="544.189453"/>
     <use xlink:href="#DejaVuSans-30" x="575.976562"/>
     <use xlink:href="#DejaVuSans-20" x="639.599609"/>
     <use xlink:href="#DejaVuSans-6d" x="671.386719"/>
     <use xlink:href="#DejaVuSans-65" x="768.798828"/>
     <use xlink:href="#DejaVuSans-61" x="830.322266"/>
     <use xlink:href="#DejaVuSans-6e" x="891.601562"/>
     <use xlink:href="#DejaVuSans-73" x="954.980469"/>
     <use xlink:href="#DejaVuSans-20" x="1007.080078"/>
     <use xlink:href="#DejaVuSans-65" x="1038.867188"/>
     <use xlink:href="#DejaVuSans-76" x="1100.390625"/>
     <use xlink:href="#DejaVuSans-65" x="1159.570312"/>
     <use xlink:href="#DejaVuSans-72" x="1221.09375"/>
     <use xlink:href="#DejaVuSans-79" x="1262.207031"/>
     <use xlink:href="#DejaVuSans-20" x="1321.386719"/>
     <use xlink:href="#DejaVuSans-63" x="1353.173828"/>
     <use xlink:href="#DejaVuSans-6c" x="1408.154297"/>
     <use xlink:href="#DejaVuSans-69" x="1435.9375"/>
     <use xlink:href="#DejaVuSans-65" x="1463.720703"/>
     <use xlink:href="#DejaVuSans-6e" x="1525.244141"/>
     <use xlink:href="#DejaVuSans-74" x="1588.623047"/>
     <use xlink:href="#DejaVuSans-20" x="1627.832031"/>
     <use xlink:href="#DejaVuSans-77" x="1659.619141"/>
     <use xlink:href="#DejaVuSans-61" x="1741.40625"/>
     <use xlink:href="#DejaVuSans-73" x="1802.685547"/>
     <use xlink:href="#DejaVuSans-20" x="1854.785156"/>
     <use xlink:href="#DejaVuSans-70" x="1886.572266"/>
     <use xlink:href="#DejaVuSans-69" x="1950.048828"/>
     <use xlink:href="#DejaVuSans-6e" x="1977.832031"/>
     <use xlink:href="#DejaVuSans-6e" x="2041.210938"/>
     <use xlink:href="#DejaVuSans-65" x="2104.589844"/>
     <use xlink:href="#DejaVuSans-64" x="2166.113281"/>
     <use xlink:href="#DejaVuSans-2e" x="2229.589844"/>
    </g>
   </g>
   <g id="text_16">
    <!-- Concentration of each client on its single busiest server -->
    <g style="fill: #0b0b0b" transform="translate(38.690938 17.077969) scale(0.13 -0.13)">
     <defs>
      <path id="DejaVuSans-Bold-43" d="M 4288 256 
Q 3956 84 3597 -3 
Q 3238 -91 2847 -91 
Q 1681 -91 1000 561 
Q 319 1213 319 2328 
Q 319 3447 1000 4098 
Q 1681 4750 2847 4750 
Q 3238 4750 3597 4662 
Q 3956 4575 4288 4403 
L 4288 3438 
Q 3953 3666 3628 3772 
Q 3303 3878 2944 3878 
Q 2300 3878 1931 3465 
Q 1563 3053 1563 2328 
Q 1563 1606 1931 1193 
Q 2300 781 2944 781 
Q 3303 781 3628 887 
Q 3953 994 4288 1222 
L 4288 256 
z
" transform="scale(0.015625)"/>
      <path id="DejaVuSans-Bold-6f" d="M 2203 2784 
Q 1831 2784 1636 2517 
Q 1441 2250 1441 1747 
Q 1441 1244 1636 976 
Q 1831 709 2203 709 
Q 2569 709 2762 976 
Q 2956 1244 2956 1747 
Q 2956 2250 2762 2517 
Q 2569 2784 2203 2784 
z
M 2203 3584 
Q 3106 3584 3614 3096 
Q 4122 2609 4122 1747 
Q 4122 884 3614 396 
Q 3106 -91 2203 -91 
Q 1297 -91 786 396 
Q 275 884 275 1747 
Q 275 2609 786 3096 
Q 1297 3584 2203 3584 
z
" transform="scale(0.015625)"/>
      <path id="DejaVuSans-Bold-6e" d="M 4056 2131 
L 4056 0 
L 2931 0 
L 2931 347 
L 2931 1631 
Q 2931 2084 2911 2256 
Q 2891 2428 2841 2509 
Q 2775 2619 2662 2680 
Q 2550 2741 2406 2741 
Q 2056 2741 1856 2470 
Q 1656 2200 1656 1722 
L 1656 0 
L 538 0 
L 538 3500 
L 1656 3500 
L 1656 2988 
Q 1909 3294 2193 3439 
Q 2478 3584 2822 3584 
Q 3428 3584 3742 3212 
Q 4056 2841 4056 2131 
z
" transform="scale(0.015625)"/>
      <path id="DejaVuSans-Bold-63" d="M 3366 3391 
L 3366 2478 
Q 3138 2634 2908 2709 
Q 2678 2784 2431 2784 
Q 1963 2784 1702 2511 
Q 1441 2238 1441 1747 
Q 1441 1256 1702 982 
Q 1963 709 2431 709 
Q 2694 709 2930 787 
Q 3166 866 3366 1019 
L 3366 103 
Q 3103 6 2833 -42 
Q 2563 -91 2291 -91 
Q 1344 -91 809 395 
Q 275 881 275 1747 
Q 275 2613 809 3098 
Q 1344 3584 2291 3584 
Q 2566 3584 2833 3536 
Q 3100 3488 3366 3391 
z
" transform="scale(0.015625)"/>
      <path id="DejaVuSans-Bold-65" d="M 4031 1759 
L 4031 1441 
L 1416 1441 
Q 1456 1047 1700 850 
Q 1944 653 2381 653 
Q 2734 653 3104 758 
Q 3475 863 3866 1075 
L 3866 213 
Q 3469 63 3072 -14 
Q 2675 -91 2278 -91 
Q 1328 -91 801 392 
Q 275 875 275 1747 
Q 275 2603 792 3093 
Q 1309 3584 2216 3584 
Q 3041 3584 3536 3087 
Q 4031 2591 4031 1759 
z
M 2881 2131 
Q 2881 2450 2695 2645 
Q 2509 2841 2209 2841 
Q 1884 2841 1681 2658 
Q 1478 2475 1428 2131 
L 2881 2131 
z
" transform="scale(0.015625)"/>
      <path id="DejaVuSans-Bold-74" d="M 1759 4494 
L 1759 3500 
L 2913 3500 
L 2913 2700 
L 1759 2700 
L 1759 1216 
Q 1759 972 1856 886 
Q 1953 800 2241 800 
L 2816 800 
L 2816 0 
L 1856 0 
Q 1194 0 917 276 
Q 641 553 641 1216 
L 641 2700 
L 84 2700 
L 84 3500 
L 641 3500 
L 641 4494 
L 1759 4494 
z
" transform="scale(0.015625)"/>
      <path id="DejaVuSans-Bold-72" d="M 3138 2547 
Q 2991 2616 2845 2648 
Q 2700 2681 2553 2681 
Q 2122 2681 1889 2404 
Q 1656 2128 1656 1613 
L 1656 0 
L 538 0 
L 538 3500 
L 1656 3500 
L 1656 2925 
Q 1872 3269 2151 3426 
Q 2431 3584 2822 3584 
Q 2878 3584 2943 3579 
Q 3009 3575 3134 3559 
L 3138 2547 
z
" transform="scale(0.015625)"/>
      <path id="DejaVuSans-Bold-61" d="M 2106 1575 
Q 1756 1575 1579 1456 
Q 1403 1338 1403 1106 
Q 1403 894 1545 773 
Q 1688 653 1941 653 
Q 2256 653 2472 879 
Q 2688 1106 2688 1447 
L 2688 1575 
L 2106 1575 
z
M 3816 1997 
L 3816 0 
L 2688 0 
L 2688 519 
Q 2463 200 2181 54 
Q 1900 -91 1497 -91 
Q 953 -91 614 226 
Q 275 544 275 1050 
Q 275 1666 698 1953 
Q 1122 2241 2028 2241 
L 2688 2241 
L 2688 2328 
Q 2688 2594 2478 2717 
Q 2269 2841 1825 2841 
Q 1466 2841 1156 2769 
Q 847 2697 581 2553 
L 581 3406 
Q 941 3494 1303 3539 
Q 1666 3584 2028 3584 
Q 2975 3584 3395 3211 
Q 3816 2838 3816 1997 
z
" transform="scale(0.015625)"/>
      <path id="DejaVuSans-Bold-69" d="M 538 3500 
L 1656 3500 
L 1656 0 
L 538 0 
L 538 3500 
z
M 538 4863 
L 1656 4863 
L 1656 3950 
L 538 3950 
L 538 4863 
z
" transform="scale(0.015625)"/>
      <path id="DejaVuSans-Bold-20" transform="scale(0.015625)"/>
      <path id="DejaVuSans-Bold-66" d="M 2841 4863 
L 2841 4128 
L 2222 4128 
Q 1984 4128 1890 4042 
Q 1797 3956 1797 3744 
L 1797 3500 
L 2753 3500 
L 2753 2700 
L 1797 2700 
L 1797 0 
L 678 0 
L 678 2700 
L 122 2700 
L 122 3500 
L 678 3500 
L 678 3744 
Q 678 4316 997 4589 
Q 1316 4863 1984 4863 
L 2841 4863 
z
" transform="scale(0.015625)"/>
      <path id="DejaVuSans-Bold-68" d="M 4056 2131 
L 4056 0 
L 2931 0 
L 2931 347 
L 2931 1625 
Q 2931 2084 2911 2256 
Q 2891 2428 2841 2509 
Q 2775 2619 2662 2680 
Q 2550 2741 2406 2741 
Q 2056 2741 1856 2470 
Q 1656 2200 1656 1722 
L 1656 0 
L 538 0 
L 538 4863 
L 1656 4863 
L 1656 2988 
Q 1909 3294 2193 3439 
Q 2478 3584 2822 3584 
Q 3428 3584 3742 3212 
Q 4056 2841 4056 2131 
z
" transform="scale(0.015625)"/>
      <path id="DejaVuSans-Bold-6c" d="M 538 4863 
L 1656 4863 
L 1656 0 
L 538 0 
L 538 4863 
z
" transform="scale(0.015625)"/>
      <path id="DejaVuSans-Bold-73" d="M 3272 3391 
L 3272 2541 
Q 2913 2691 2578 2766 
Q 2244 2841 1947 2841 
Q 1628 2841 1473 2761 
Q 1319 2681 1319 2516 
Q 1319 2381 1436 2309 
Q 1553 2238 1856 2203 
L 2053 2175 
Q 2913 2066 3209 1816 
Q 3506 1566 3506 1031 
Q 3506 472 3093 190 
Q 2681 -91 1863 -91 
Q 1516 -91 1145 -36 
Q 775 19 384 128 
L 384 978 
Q 719 816 1070 734 
Q 1422 653 1784 653 
Q 2113 653 2278 743 
Q 2444 834 2444 1013 
Q 2444 1163 2330 1236 
Q 2216 1309 1875 1350 
L 1678 1375 
Q 931 1469 631 1722 
Q 331 1975 331 2491 
Q 331 3047 712 3315 
Q 1094 3584 1881 3584 
Q 2191 3584 2531 3537 
Q 2872 3491 3272 3391 
z
" transform="scale(0.015625)"/>
      <path id="DejaVuSans-Bold-67" d="M 2919 594 
Q 2688 288 2409 144 
Q 2131 0 1766 0 
Q 1125 0 706 504 
Q 288 1009 288 1791 
Q 288 2575 706 3076 
Q 1125 3578 1766 3578 
Q 2131 3578 2409 3434 
Q 2688 3291 2919 2981 
L 2919 3500 
L 4044 3500 
L 4044 353 
Q 4044 -491 3511 -936 
Q 2978 -1381 1966 -1381 
Q 1638 -1381 1331 -1331 
Q 1025 -1281 716 -1178 
L 716 -306 
Q 1009 -475 1290 -558 
Q 1572 -641 1856 -641 
Q 2406 -641 2662 -400 
Q 2919 -159 2919 353 
L 2919 594 
z
M 2181 2772 
Q 1834 2772 1640 2515 
Q 1447 2259 1447 1791 
Q 1447 1309 1634 1061 
Q 1822 813 2181 813 
Q 2531 813 2725 1069 
Q 2919 1325 2919 1791 
Q 2919 2259 2725 2515 
Q 2531 2772 2181 2772 
z
" transform="scale(0.015625)"/>
      <path id="DejaVuSans-Bold-62" d="M 2400 722 
Q 2759 722 2948 984 
Q 3138 1247 3138 1747 
Q 3138 2247 2948 2509 
Q 2759 2772 2400 2772 
Q 2041 2772 1848 2508 
Q 1656 2244 1656 1747 
Q 1656 1250 1848 986 
Q 2041 722 2400 722 
z
M 1656 2988 
Q 1888 3294 2169 3439 
Q 2450 3584 2816 3584 
Q 3463 3584 3878 3070 
Q 4294 2556 4294 1747 
Q 4294 938 3878 423 
Q 3463 -91 2816 -91 
Q 2450 -91 2169 54 
Q 1888 200 1656 506 
L 1656 0 
L 538 0 
L 538 4863 
L 1656 4863 
L 1656 2988 
z
" transform="scale(0.015625)"/>
      <path id="DejaVuSans-Bold-75" d="M 500 1363 
L 500 3500 
L 1625 3500 
L 1625 3150 
Q 1625 2866 1622 2436 
Q 1619 2006 1619 1863 
Q 1619 1441 1641 1255 
Q 1663 1069 1716 984 
Q 1784 875 1895 815 
Q 2006 756 2150 756 
Q 2500 756 2700 1025 
Q 2900 1294 2900 1772 
L 2900 3500 
L 4019 3500 
L 4019 0 
L 2900 0 
L 2900 506 
Q 2647 200 2364 54 
Q 2081 -91 1741 -91 
Q 1134 -91 817 281 
Q 500 653 500 1363 
z
" transform="scale(0.015625)"/>
      <path id="DejaVuSans-Bold-76" d="M 97 3500 
L 1216 3500 
L 2088 1081 
L 2956 3500 
L 4078 3500 
L 2700 0 
L 1472 0 
L 97 3500 
z
" transform="scale(0.015625)"/>
     </defs>
     <use xlink:href="#DejaVuSans-Bold-43"/>
     <use xlink:href="#DejaVuSans-Bold-6f" x="73.388672"/>
     <use xlink:href="#DejaVuSans-Bold-6e" x="142.089844"/>
     <use xlink:href="#DejaVuSans-Bold-63" x="213.28125"/>
     <use xlink:href="#DejaVuSans-Bold-65" x="272.558594"/>
     <use xlink:href="#DejaVuSans-Bold-6e" x="340.380859"/>
     <use xlink:href="#DejaVuSans-Bold-74" x="411.572266"/>
     <use xlink:href="#DejaVuSans-Bold-72" x="459.375"/>
     <use xlink:href="#DejaVuSans-Bold-61" x="508.691406"/>
     <use xlink:href="#DejaVuSans-Bold-74" x="576.171875"/>
     <use xlink:href="#DejaVuSans-Bold-69" x="623.974609"/>
     <use xlink:href="#DejaVuSans-Bold-6f" x="658.251953"/>
     <use xlink:href="#DejaVuSans-Bold-6e" x="726.953125"/>
     <use xlink:href="#DejaVuSans-Bold-20" x="798.144531"/>
     <use xlink:href="#DejaVuSans-Bold-6f" x="832.958984"/>
     <use xlink:href="#DejaVuSans-Bold-66" x="901.660156"/>
     <use xlink:href="#DejaVuSans-Bold-20" x="945.166016"/>
     <use xlink:href="#DejaVuSans-Bold-65" x="979.980469"/>
     <use xlink:href="#DejaVuSans-Bold-61" x="1047.802734"/>
     <use xlink:href="#DejaVuSans-Bold-63" x="1115.283203"/>
     <use xlink:href="#DejaVuSans-Bold-68" x="1174.560547"/>
     <use xlink:href="#DejaVuSans-Bold-20" x="1245.751953"/>
     <use xlink:href="#DejaVuSans-Bold-63" x="1280.566406"/>
     <use xlink:href="#DejaVuSans-Bold-6c" x="1339.84375"/>
     <use xlink:href="#DejaVuSans-Bold-69" x="1374.121094"/>
     <use xlink:href="#DejaVuSans-Bold-65" x="1408.398438"/>
     <use xlink:href="#DejaVuSans-Bold-6e" x="1476.220703"/>
     <use xlink:href="#DejaVuSans-Bold-74" x="1547.412109"/>
     <use xlink:href="#DejaVuSans-Bold-20" x="1595.214844"/>
     <use xlink:href="#DejaVuSans-Bold-6f" x="1630.029297"/>
     <use xlink:href="#DejaVuSans-Bold-6e" x="1698.730469"/>
     <use xlink:href="#DejaVuSans-Bold-20" x="1769.921875"/>
     <use xlink:href="#DejaVuSans-Bold-69" x="1804.736328"/>
     <use xlink:href="#DejaVuSans-Bold-74" x="1839.013672"/>
     <use xlink:href="#DejaVuSans-Bold-73" x="1886.816406"/>
     <use xlink:href="#DejaVuSans-Bold-20" x="1946.337891"/>
     <use xlink:href="#DejaVuSans-Bold-73" x="1981.152344"/>
     <use xlink:href="#DejaVuSans-Bold-69" x="2040.673828"/>
     <use xlink:href="#DejaVuSans-Bold-6e" x="2074.951172"/>
     <use xlink:href="#DejaVuSans-Bold-67" x="2146.142578"/>
     <use xlink:href="#DejaVuSans-Bold-6c" x="2217.724609"/>
     <use xlink:href="#DejaVuSans-Bold-65" x="2252.001953"/>
     <use xlink:href="#DejaVuSans-Bold-20" x="2319.824219"/>
     <use xlink:href="#DejaVuSans-Bold-62" x="2354.638672"/>
     <use xlink:href="#DejaVuSans-Bold-75" x="2426.220703"/>
     <use xlink:href="#DejaVuSans-Bold-73" x="2497.412109"/>
     <use xlink:href="#DejaVuSans-Bold-69" x="2556.933594"/>
     <use xlink:href="#DejaVuSans-Bold-65" x="2591.210938"/>
     <use xlink:href="#DejaVuSans-Bold-73" x="2659.033203"/>
     <use xlink:href="#DejaVuSans-Bold-74" x="2718.554688"/>
     <use xlink:href="#DejaVuSans-Bold-20" x="2766.357422"/>
     <use xlink:href="#DejaVuSans-Bold-73" x="2801.171875"/>
     <use xlink:href="#DejaVuSans-Bold-65" x="2860.693359"/>
     <use xlink:href="#DejaVuSans-Bold-72" x="2928.515625"/>
     <use xlink:href="#DejaVuSans-Bold-76" x="2977.832031"/>
     <use xlink:href="#DejaVuSans-Bold-65" x="3043.017578"/>
     <use xlink:href="#DejaVuSans-Bold-72" x="3110.839844"/>
    </g>
   </g>
   <g id="line2d_25">
    <path d="M 550.712996 284.561792 
L 550.712996 284.561792 
L 550.712996 278.745616 
L 550.712996 278.745616 
L 550.712996 272.929439 
L 550.712996 272.929439 
L 550.712996 267.113263 
L 550.712996 267.113263 
L 550.712996 261.297086 
L 550.712996 261.297086 
L 550.712996 255.48091 
L 550.712996 255.48091 
L 550.712996 249.664733 
L 550.712996 249.664733 
L 550.712996 243.848557 
L 550.712996 243.848557 
L 550.712996 238.032381 
L 550.712996 238.032381 
L 550.712996 232.216204 
L 550.712996 232.216204 
L 550.712996 226.400028 
L 550.712996 226.400028 
L 550.712996 220.583851 
L 550.712996 220.583851 
L 550.712996 214.767675 
L 550.712996 214.767675 
L 550.712996 208.951498 
L 550.712996 208.951498 
L 550.712996 203.135322 
L 550.712996 203.135322 
L 550.712996 197.319145 
L 550.712996 197.319145 
L 550.712996 191.502969 
L 550.712996 191.502969 
L 550.712996 185.686792 
L 550.712996 185.686792 
L 550.712996 179.870616 
L 550.712996 179.870616 
L 550.712996 174.054439 
L 550.712996 174.054439 
L 550.712996 168.238263 
L 550.712996 168.238263 
L 550.712996 162.422086 
L 550.712996 162.422086 
L 550.712996 156.60591 
L 550.712996 156.60591 
L 550.712996 150.789733 
L 550.712996 150.789733 
L 550.712996 144.973557 
L 550.712996 144.973557 
L 550.712996 139.157381 
L 550.712996 139.157381 
L 550.712996 133.341204 
L 550.712996 133.341204 
L 550.712996 127.525028 
L 550.712996 127.525028 
L 550.712996 121.708851 
L 550.712996 121.708851 
L 550.712996 115.892675 
L 550.712996 115.892675 
L 550.712996 110.076498 
L 550.712996 110.076498 
L 550.712996 104.260322 
L 550.712996 104.260322 
L 550.712996 98.444145 
L 550.712996 98.444145 
L 550.712996 92.627969 
L 550.712996 92.627969 
L 550.712996 86.811792 
L 550.712996 86.811792 
L 550.712996 80.995616 
L 550.712996 80.995616 
L 550.712996 75.179439 
L 550.712996 75.179439 
L 550.712996 69.363263 
L 550.712996 69.363263 
L 550.712996 63.547086 
L 550.712996 63.547086 
L 550.712996 57.73091 
" clip-path="url(#p1c989e7232)" style="fill: none; stroke: #2a78d6; stroke-width: 2; stroke-linecap: square"/>
   </g>
   <g id="line2d_26">
    <path d="M 158.287331 284.09021 
L 158.938542 284.09021 
L 158.938542 277.802452 
L 160.059129 277.802452 
L 160.059129 271.514694 
L 162.024718 271.514694 
L 162.024718 265.226935 
L 163.765028 265.226935 
L 163.765028 258.939177 
L 164.785922 258.939177 
L 164.785922 252.651419 
L 164.785922 252.651419 
L 164.785922 246.36366 
L 164.785922 246.36366 
L 164.785922 240.075902 
L 164.8413 240.075902 
L 164.8413 233.788144 
L 167.644641 233.788144 
L 167.644641 227.500385 
L 168.499347 227.500385 
L 168.499347 221.212627 
L 172.428042 221.212627 
L 172.428042 214.924869 
L 172.428042 214.924869 
L 172.428042 208.63711 
L 172.428042 208.63711 
L 172.428042 202.349352 
L 173.23688 202.349352 
L 173.23688 196.061594 
L 174.226188 196.061594 
L 174.226188 189.773835 
L 174.984579 189.773835 
L 174.984579 183.486077 
L 174.984579 183.486077 
L 174.984579 177.198319 
L 174.984579 177.198319 
L 174.984579 170.91056 
L 175.700978 170.91056 
L 175.700978 164.622802 
L 175.710925 164.622802 
L 175.710925 158.335043 
L 177.668353 158.335043 
L 177.668353 152.047285 
L 177.991056 152.047285 
L 177.991056 145.759527 
L 183.891223 145.759527 
L 183.891223 139.471768 
L 183.945422 139.471768 
L 183.945422 133.18401 
L 184.449042 133.18401 
L 184.449042 126.896252 
L 184.982954 126.896252 
L 184.982954 120.608493 
L 186.091227 120.608493 
L 186.091227 114.320735 
L 186.608421 114.320735 
L 186.608421 108.032977 
L 187.103128 108.032977 
L 187.103128 101.745218 
L 188.186429 101.745218 
L 188.186429 95.45746 
L 188.186429 95.45746 
L 188.186429 89.169702 
L 195.354403 89.169702 
L 195.354403 82.881943 
L 195.354403 82.881943 
L 195.354403 76.594185 
L 195.954856 76.594185 
L 195.954856 70.306427 
L 196.236186 70.306427 
L 196.236186 64.018668 
L 203.135978 64.018668 
L 203.135978 57.73091 
" clip-path="url(#p1c989e7232)" style="fill: none; stroke: #eb6834; stroke-width: 2; stroke-linecap: square"/>
   </g>
   <g id="legend_1">
    <g id="line2d_27">
     <path d="M 46.790938 64.866562 
L 54.890938 64.866562 
L 54.890938 64.866562 
L 62.990938 64.866562 
L 62.990938 64.866562 
" style="fill: none; stroke: #2a78d6; stroke-width: 2; stroke-linecap: square"/>
    </g>
    <g id="text_17">
     <!-- baseline (no zero trust)  (40 routed clients) -->
     <g style="fill: #52514e" transform="translate(70.190938 68.016562) scale(0.09 -0.09)">
      <defs>
       <path id="DejaVuSans-28" d="M 1984 4856 
Q 1566 4138 1362 3434 
Q 1159 2731 1159 2009 
Q 1159 1288 1364 580 
Q 1569 -128 1984 -844 
L 1484 -844 
Q 1016 -109 783 600 
Q 550 1309 550 2009 
Q 550 2706 781 3412 
Q 1013 4119 1484 4856 
L 1984 4856 
z
" transform="scale(0.015625)"/>
       <path id="DejaVuSans-7a" d="M 353 3500 
L 3084 3500 
L 3084 2975 
L 922 459 
L 3084 459 
L 3084 0 
L 275 0 
L 275 525 
L 2438 3041 
L 353 3041 
L 353 3500 
z
" transform="scale(0.015625)"/>
       <path id="DejaVuSans-29" d="M 513 4856 
L 1013 4856 
Q 1481 4119 1714 3412 
Q 1947 2706 1947 2009 
Q 1947 1309 1714 600 
Q 1481 -109 1013 -844 
L 513 -844 
Q 928 -128 1133 580 
Q 1338 1288 1338 2009 
Q 1338 2731 1133 3434 
Q 928 4138 513 4856 
z
" transform="scale(0.015625)"/>
      </defs>
      <use xlink:href="#DejaVuSans-62"/>
      <use xlink:href="#DejaVuSans-61" x="63.476562"/>
      <use xlink:href="#DejaVuSans-73" x="124.755859"/>
      <use xlink:href="#DejaVuSans-65" x="176.855469"/>
      <use xlink:href="#DejaVuSans-6c" x="238.378906"/>
      <use xlink:href="#DejaVuSans-69" x="266.162109"/>
      <use xlink:href="#DejaVuSans-6e" x="293.945312"/>
      <use xlink:href="#DejaVuSans-65" x="357.324219"/>
      <use xlink:href="#DejaVuSans-20" x="418.847656"/>
      <use xlink:href="#DejaVuSans-28" x="450.634766"/>
      <use xlink:href="#DejaVuSans-6e" x="489.648438"/>
      <use xlink:href="#DejaVuSans-6f" x="553.027344"/>
      <use xlink:href="#DejaVuSans-20" x="614.208984"/>
      <use xlink:href="#DejaVuSans-7a" x="645.996094"/>
      <use xlink:href="#DejaVuSans-65" x="698.486328"/>
      <use xlink:href="#DejaVuSans-72" x="760.009766"/>
      <use xlink:href="#DejaVuSans-6f" x="798.873047"/>
      <use xlink:href="#DejaVuSans-20" x="860.054688"/>
      <use xlink:href="#DejaVuSans-74" x="891.841797"/>
      <use xlink:href="#DejaVuSans-72" x="931.050781"/>
      <use xlink:href="#DejaVuSans-75" x="972.164062"/>
      <use xlink:href="#DejaVuSans-73" x="1035.542969"/>
      <use xlink:href="#DejaVuSans-74" x="1087.642578"/>
      <use xlink:href="#DejaVuSans-29" x="1126.851562"/>
      <use xlink:href="#DejaVuSans-20" x="1165.865234"/>
      <use xlink:href="#DejaVuSans-20" x="1197.652344"/>
      <use xlink:href="#DejaVuSans-28" x="1229.439453"/>
      <use xlink:href="#DejaVuSans-34" x="1268.453125"/>
      <use xlink:href="#DejaVuSans-30" x="1332.076172"/>
      <use xlink:href="#DejaVuSans-20" x="1395.699219"/>
      <use xlink:href="#DejaVuSans-72" x="1427.486328"/>
      <use xlink:href="#DejaVuSans-6f" x="1466.349609"/>
      <use xlink:href="#DejaVuSans-75" x="1527.53125"/>
      <use xlink:href="#DejaVuSans-74" x="1590.910156"/>
      <use xlink:href="#DejaVuSans-65" x="1630.119141"/>
      <use xlink:href="#DejaVuSans-64" x="1691.642578"/>
      <use xlink:href="#DejaVuSans-20" x="1755.119141"/>
      <use xlink:href="#DejaVuSans-63" x="1786.90625"/>
      <use xlink:href="#DejaVuSans-6c" x="1841.886719"/>
      <use xlink:href="#DejaVuSans-69" x="1869.669922"/>
      <use xlink:href="#DejaVuSans-65" x="1897.453125"/>
      <use xlink:href="#DejaVuSans-6e" x="1958.976562"/>
      <use xlink:href="#DejaVuSans-74" x="2022.355469"/>
      <use xlink:href="#DejaVuSans-73" x="2061.564453"/>
      <use xlink:href="#DejaVuSans-29" x="2113.664062"/>
     </g>
    </g>
    <g id="line2d_28">
     <path d="M 46.790938 78.076875 
L 54.890938 78.076875 
L 54.890938 78.076875 
L 62.990938 78.076875 
L 62.990938 78.076875 
" style="fill: none; stroke: #eb6834; stroke-width: 2; stroke-linecap: square"/>
    </g>
    <g id="text_18">
     <!-- zero-trust SDN  (37 routed clients) -->
     <g style="fill: #52514e" transform="translate(70.190938 81.226875) scale(0.09 -0.09)">
      <defs>
       <path id="DejaVuSans-53" d="M 3425 4513 
L 3425 3897 
Q 3066 4069 2747 4153 
Q 2428 4238 2131 4238 
Q 1616 4238 1336 4038 
Q 1056 3838 1056 3469 
Q 1056 3159 1242 3001 
Q 1428 2844 1947 2747 
L 2328 2669 
Q 3034 2534 3370 2195 
Q 3706 1856 3706 1288 
Q 3706 609 3251 259 
Q 2797 -91 1919 -91 
Q 1588 -91 1214 -16 
Q 841 59 441 206 
L 441 856 
Q 825 641 1194 531 
Q 1563 422 1919 422 
Q 2459 422 2753 634 
Q 3047 847 3047 1241 
Q 3047 1584 2836 1778 
Q 2625 1972 2144 2069 
L 1759 2144 
Q 1053 2284 737 2584 
Q 422 2884 422 3419 
Q 422 4038 858 4394 
Q 1294 4750 2059 4750 
Q 2388 4750 2728 4690 
Q 3069 4631 3425 4513 
z
" transform="scale(0.015625)"/>
       <path id="DejaVuSans-44" d="M 1259 4147 
L 1259 519 
L 2022 519 
Q 2988 519 3436 956 
Q 3884 1394 3884 2338 
Q 3884 3275 3436 3711 
Q 2988 4147 2022 4147 
L 1259 4147 
z
M 628 4666 
L 1925 4666 
Q 3281 4666 3915 4102 
Q 4550 3538 4550 2338 
Q 4550 1131 3912 565 
Q 3275 0 1925 0 
L 628 0 
L 628 4666 
z
" transform="scale(0.015625)"/>
       <path id="DejaVuSans-4e" d="M 628 4666 
L 1478 4666 
L 3547 763 
L 3547 4666 
L 4159 4666 
L 4159 0 
L 3309 0 
L 1241 3903 
L 1241 0 
L 628 0 
L 628 4666 
z
" transform="scale(0.015625)"/>
       <path id="DejaVuSans-33" d="M 2597 2516 
Q 3050 2419 3304 2112 
Q 3559 1806 3559 1356 
Q 3559 666 3084 287 
Q 2609 -91 1734 -91 
Q 1441 -91 1130 -33 
Q 819 25 488 141 
L 488 750 
Q 750 597 1062 519 
Q 1375 441 1716 441 
Q 2309 441 2620 675 
Q 2931 909 2931 1356 
Q 2931 1769 2642 2001 
Q 2353 2234 1838 2234 
L 1294 2234 
L 1294 2753 
L 1863 2753 
Q 2328 2753 2575 2939 
Q 2822 3125 2822 3475 
Q 2822 3834 2567 4026 
Q 2313 4219 1838 4219 
Q 1578 4219 1281 4162 
Q 984 4106 628 3988 
L 628 4550 
Q 988 4650 1302 4700 
Q 1616 4750 1894 4750 
Q 2613 4750 3031 4423 
Q 3450 4097 3450 3541 
Q 3450 3153 3228 2886 
Q 3006 2619 2597 2516 
z
" transform="scale(0.015625)"/>
       <path id="DejaVuSans-37" d="M 525 4666 
L 3525 4666 
L 3525 4397 
L 1831 0 
L 1172 0 
L 2766 4134 
L 525 4134 
L 525 4666 
z
" transform="scale(0.015625)"/>
      </defs>
      <use xlink:href="#DejaVuSans-7a"/>
      <use xlink:href="#DejaVuSans-65" x="52.490234"/>
      <use xlink:href="#DejaVuSans-72" x="114.013672"/>
      <use xlink:href="#DejaVuSans-6f" x="152.876953"/>
      <use xlink:href="#DejaVuSans-2d" x="215.933594"/>
      <use xlink:href="#DejaVuSans-74" x="252.017578"/>
      <use xlink:href="#DejaVuSans-72" x="291.226562"/>
      <use xlink:href="#DejaVuSans-75" x="332.339844"/>
      <use xlink:href="#DejaVuSans-73" x="395.71875"/>
      <use xlink:href="#DejaVuSans-74" x="447.818359"/>
      <use xlink:href="#DejaVuSans-20" x="487.027344"/>
      <use xlink:href="#DejaVuSans-53" x="518.814453"/>
      <use xlink:href="#DejaVuSans-44" x="582.291016"/>
      <use xlink:href="#DejaVuSans-4e" x="659.292969"/>
      <use xlink:href="#DejaVuSans-20" x="734.097656"/>
      <use xlink:href="#DejaVuSans-20" x="765.884766"/>
      <use xlink:href="#DejaVuSans-28" x="797.671875"/>
      <use xlink:href="#DejaVuSans-33" x="836.685547"/>
      <use xlink:href="#DejaVuSans-37" x="900.308594"/>
      <use xlink:href="#DejaVuSans-20" x="963.931641"/>
      <use xlink:href="#DejaVuSans-72" x="995.71875"/>
      <use xlink:href="#DejaVuSans-6f" x="1034.582031"/>
      <use xlink:href="#DejaVuSans-75" x="1095.763672"/>
      <use xlink:href="#DejaVuSans-74" x="1159.142578"/>
      <use xlink:href="#DejaVuSans-65" x="1198.351562"/>
      <use xlink:href="#DejaVuSans-64" x="1259.875"/>
      <use xlink:href="#DejaVuSans-20" x="1323.351562"/>
      <use xlink:href="#DejaVuSans-63" x="1355.138672"/>
      <use xlink:href="#DejaVuSans-6c" x="1410.119141"/>
      <use xlink:href="#DejaVuSans-69" x="1437.902344"/>
      <use xlink:href="#DejaVuSans-65" x="1465.685547"/>
      <use xlink:href="#DejaVuSans-6e" x="1527.208984"/>
      <use xlink:href="#DejaVuSans-74" x="1590.587891"/>
      <use xlink:href="#DejaVuSans-73" x="1629.796875"/>
      <use xlink:href="#DejaVuSans-29" x="1681.896484"/>
     </g>
    </g>
   </g>
  </g>
 </g>
 <defs>
  <clipPath id="p1c989e7232">
   <rect x="38.690938" y="53.077969" width="522.2625" height="237.3"/>
  </clipPath>
 </defs>
</svg>
